<svg width="93" height="62" viewBox="0 0 93 62" fill="none" xmlns="http://www.w3.org/2000/svg">
<path fill-rule="evenodd" clip-rule="evenodd" d="M8.82004 1.02033C6.80235 -0.0731827 3.53103 -0.0731827 1.51334 1.02033C-0.504447 2.11379 -0.504447 3.88663 1.51334 4.98009L42.8467 27.3801C44.8644 28.4736 48.1357 28.4736 50.1534 27.3801L91.4872 4.98009C93.5043 3.88663 93.5043 2.11379 91.4872 1.02033C89.4691 -0.0731827 86.1976 -0.0731827 84.1795 1.02033L46.5 21.4404L8.82004 1.02033ZM8.82004 34.6203C6.80235 33.5268 3.53103 33.5268 1.51334 34.6203C-0.504447 35.7138 -0.504447 37.4866 1.51334 38.5801L42.8467 60.9804C44.8644 62.0735 48.1357 62.0735 50.1534 60.9804L91.4872 38.5801C93.5043 37.4866 93.5043 35.7138 91.4872 34.6203C89.4691 33.5268 86.1976 33.5268 84.1795 34.6203L46.5 55.0405L8.82004 34.6203Z" fill="url(#paint0_linear_1598_282)"/>
<defs>
<linearGradient id="paint0_linear_1598_282" x1="46.5" y1="0.200195" x2="46.5" y2="61.8002" gradientUnits="userSpaceOnUse">
<stop stop-color="#F165D2"/>
<stop offset="1" stop-color="#FFD44C"/>
</linearGradient>
</defs>
</svg>
