<svg width="55" height="55" viewBox="0 0 55 55" fill="none" xmlns="http://www.w3.org/2000/svg">
<path d="M26.58 50C26.58 50 45.16 34.3635 45.16 22.5C45.16 18.1239 43.2025 13.9271 39.718 10.8327C36.2336 7.73839 31.5077 6 26.58 6C21.6523 6 16.9264 7.73839 13.442 10.8327C9.95753 13.9271 8 18.1239 8 22.5C8 34.3635 26.58 50 26.58 50ZM26.58 30.75C24.1161 30.75 21.7532 29.8808 20.011 28.3336C18.2688 26.7865 17.29 24.688 17.29 22.5C17.29 20.312 18.2688 18.2135 20.011 16.6664C21.7532 15.1192 24.1161 14.25 26.58 14.25C29.0439 14.25 31.4068 15.1192 33.149 16.6664C34.8912 18.2135 35.87 20.312 35.87 22.5C35.87 24.688 34.8912 26.7865 33.149 28.3336C31.4068 29.8808 29.0439 30.75 26.58 30.75Z" fill="url(#paint0_linear_1177_272)"/>
<defs>
<linearGradient id="paint0_linear_1177_272" x1="26.58" y1="6" x2="26.58" y2="50" gradientUnits="userSpaceOnUse">
<stop stop-color="#F165D2"/>
<stop offset="1" stop-color="#FFD44C"/>
</linearGradient>
</defs>
</svg>
