<svg width="42" height="55" viewBox="0 0 42 55" fill="none" xmlns="http://www.w3.org/2000/svg">
<path d="M21 52C21 52 40 34.2313 40 20.75C40 15.7772 37.9982 11.0081 34.435 7.49175C30.8718 3.97544 26.0391 2 21 2C15.9609 2 11.1282 3.97544 7.56497 7.49175C4.00178 11.0081 2 15.7772 2 20.75C2 34.2313 21 52 21 52ZM21 30.125C18.4804 30.125 16.0641 29.1373 14.2825 27.3791C12.5009 25.621 11.5 23.2364 11.5 20.75C11.5 18.2636 12.5009 15.879 14.2825 14.1209C16.0641 12.3627 18.4804 11.375 21 11.375C23.5196 11.375 25.9359 12.3627 27.7175 14.1209C29.4991 15.879 30.5 18.2636 30.5 20.75C30.5 23.2364 29.4991 25.621 27.7175 27.3791C25.9359 29.1373 23.5196 30.125 21 30.125Z" fill="#F165D2" stroke="#00034D" stroke-width="3"/>
</svg>
