<svg width="55" height="55" viewBox="0 0 55 55" fill="none" xmlns="http://www.w3.org/2000/svg">
<rect width="55" height="55" fill="#00034D"/>
<path fill-rule="evenodd" clip-rule="evenodd" d="M8.59375 41.25C8.59375 40.7942 8.77483 40.357 9.09716 40.0347C9.41949 39.7123 9.85666 39.5312 10.3125 39.5312H44.6875C45.1433 39.5312 45.5805 39.7123 45.9028 40.0347C46.2252 40.357 46.4062 40.7942 46.4062 41.25C46.4062 41.7058 46.2252 42.143 45.9028 42.4653C45.5805 42.7877 45.1433 42.9688 44.6875 42.9688H10.3125C9.85666 42.9688 9.41949 42.7877 9.09716 42.4653C8.77483 42.143 8.59375 41.7058 8.59375 41.25ZM8.59375 27.5C8.59375 27.0442 8.77483 26.607 9.09716 26.2847C9.41949 25.9623 9.85666 25.7812 10.3125 25.7812H44.6875C45.1433 25.7812 45.5805 25.9623 45.9028 26.2847C46.2252 26.607 46.4062 27.0442 46.4062 27.5C46.4062 27.9558 46.2252 28.393 45.9028 28.7153C45.5805 29.0377 45.1433 29.2188 44.6875 29.2188H10.3125C9.85666 29.2188 9.41949 29.0377 9.09716 28.7153C8.77483 28.393 8.59375 27.9558 8.59375 27.5ZM8.59375 13.75C8.59375 13.2942 8.77483 12.857 9.09716 12.5347C9.41949 12.2123 9.85666 12.0312 10.3125 12.0312H44.6875C45.1433 12.0312 45.5805 12.2123 45.9028 12.5347C46.2252 12.857 46.4062 13.2942 46.4062 13.75C46.4062 14.2058 46.2252 14.643 45.9028 14.9653C45.5805 15.2877 45.1433 15.4688 44.6875 15.4688H10.3125C9.85666 15.4688 9.41949 15.2877 9.09716 14.9653C8.77483 14.643 8.59375 14.2058 8.59375 13.75Z" fill="url(#paint0_linear_950_449)"/>
<defs>
<linearGradient id="paint0_linear_950_449" x1="27.5" y1="12.0312" x2="27.5" y2="42.9688" gradientUnits="userSpaceOnUse">
<stop stop-color="#F165D2"/>
<stop offset="1" stop-color="#FFD44C"/>
</linearGradient>
</defs>
</svg>
