<svg width="55" height="55" viewBox="0 0 55 55" fill="none" xmlns="http://www.w3.org/2000/svg">
<path fill-rule="evenodd" clip-rule="evenodd" d="M8 42.2188C8 41.7629 8.18108 41.3257 8.50341 41.0034C8.82574 40.6811 9.26291 40.5 9.71875 40.5H44.0938C44.5496 40.5 44.9868 40.6811 45.3091 41.0034C45.6314 41.3257 45.8125 41.7629 45.8125 42.2188C45.8125 42.6746 45.6314 43.1118 45.3091 43.4341C44.9868 43.7564 44.5496 43.9375 44.0938 43.9375H9.71875C9.26291 43.9375 8.82574 43.7564 8.50341 43.4341C8.18108 43.1118 8 42.6746 8 42.2188ZM8 28.4688C8 28.0129 8.18108 27.5757 8.50341 27.2534C8.82574 26.9311 9.26291 26.75 9.71875 26.75H44.0938C44.5496 26.75 44.9868 26.9311 45.3091 27.2534C45.6314 27.5757 45.8125 28.0129 45.8125 28.4688C45.8125 28.9246 45.6314 29.3618 45.3091 29.6841C44.9868 30.0064 44.5496 30.1875 44.0938 30.1875H9.71875C9.26291 30.1875 8.82574 30.0064 8.50341 29.6841C8.18108 29.3618 8 28.9246 8 28.4688ZM8 14.7188C8 14.2629 8.18108 13.8257 8.50341 13.5034C8.82574 13.1811 9.26291 13 9.71875 13H44.0938C44.5496 13 44.9868 13.1811 45.3091 13.5034C45.6314 13.8257 45.8125 14.2629 45.8125 14.7188C45.8125 15.1746 45.6314 15.6118 45.3091 15.9341C44.9868 16.2564 44.5496 16.4375 44.0938 16.4375H9.71875C9.26291 16.4375 8.82574 16.2564 8.50341 15.9341C8.18108 15.6118 8 15.1746 8 14.7188Z" fill="url(#paint0_linear_1177_276)"/>
<defs>
<linearGradient id="paint0_linear_1177_276" x1="26.9062" y1="13" x2="26.9062" y2="43.9375" gradientUnits="userSpaceOnUse">
<stop stop-color="#F165D2"/>
<stop offset="1" stop-color="#FFD44C"/>
</linearGradient>
</defs>
</svg>
