<svg width="24" height="24" viewBox="0 0 24 24" fill="none" xmlns="http://www.w3.org/2000/svg">
<path d="M6.96888 6.96912C7.03854 6.89927 7.12131 6.84386 7.21242 6.80605C7.30354 6.76824 7.40122 6.74878 7.49988 6.74878C7.59853 6.74878 7.69621 6.76824 7.78733 6.80605C7.87844 6.84386 7.96121 6.89927 8.03088 6.96912L11.9999 10.9396L15.9689 6.96912C16.0386 6.89939 16.1214 6.84407 16.2125 6.80633C16.3036 6.7686 16.4013 6.74917 16.4999 6.74917C16.5985 6.74917 16.6961 6.7686 16.7873 6.80633C16.8784 6.84407 16.9611 6.89939 17.0309 6.96912C17.1006 7.03885 17.1559 7.12164 17.1937 7.21274C17.2314 7.30385 17.2508 7.4015 17.2508 7.50012C17.2508 7.59874 17.2314 7.69639 17.1937 7.7875C17.1559 7.8786 17.1006 7.96139 17.0309 8.03112L13.0604 12.0001L17.0309 15.9691C17.1006 16.0389 17.1559 16.1216 17.1937 16.2127C17.2314 16.3039 17.2508 16.4015 17.2508 16.5001C17.2508 16.5987 17.2314 16.6964 17.1937 16.7875C17.1559 16.8786 17.1006 16.9614 17.0309 17.0311C16.9611 17.1009 16.8784 17.1562 16.7873 17.1939C16.6961 17.2316 16.5985 17.2511 16.4999 17.2511C16.4013 17.2511 16.3036 17.2316 16.2125 17.1939C16.1214 17.1562 16.0386 17.1009 15.9689 17.0311L11.9999 13.0606L8.03088 17.0311C7.96114 17.1009 7.87836 17.1562 7.78725 17.1939C7.69614 17.2316 7.59849 17.2511 7.49988 17.2511C7.40126 17.2511 7.30361 17.2316 7.2125 17.1939C7.12139 17.1562 7.03861 17.1009 6.96888 17.0311C6.89914 16.9614 6.84383 16.8786 6.80609 16.7875C6.76835 16.6964 6.74893 16.5987 6.74893 16.5001C6.74893 16.4015 6.76835 16.3039 6.80609 16.2127C6.84383 16.1216 6.89914 16.0389 6.96888 15.9691L10.9394 12.0001L6.96888 8.03112C6.89903 7.96145 6.84362 7.87869 6.80581 7.78757C6.768 7.69645 6.74854 7.59877 6.74854 7.50012C6.74854 7.40147 6.768 7.30379 6.80581 7.21267C6.84362 7.12155 6.89903 7.03879 6.96888 6.96912Z" fill="url(#paint0_linear_1471_278)"/>
<defs>
<linearGradient id="paint0_linear_1471_278" x1="11.9997" y1="6.74878" x2="11.9997" y2="17.2511" gradientUnits="userSpaceOnUse">
<stop stop-color="#F165D2"/>
<stop offset="1" stop-color="#FFD44C"/>
</linearGradient>
</defs>
</svg>
