<svg width="55" height="55" viewBox="0 0 55 55" fill="none" xmlns="http://www.w3.org/2000/svg">
<path d="M8.75 50C8.75 50 5 50 5 46.3333C5 42.6667 8.75 31.6667 27.5 31.6667C46.25 31.6667 50 42.6667 50 46.3333C50 50 46.25 50 46.25 50H8.75ZM27.5 28C30.4837 28 33.3452 26.8411 35.455 24.7782C37.5647 22.7153 38.75 19.9174 38.75 17C38.75 14.0826 37.5647 11.2847 35.455 9.22183C33.3452 7.15893 30.4837 6 27.5 6C24.5163 6 21.6548 7.15893 19.545 9.22183C17.4353 11.2847 16.25 14.0826 16.25 17C16.25 19.9174 17.4353 22.7153 19.545 24.7782C21.6548 26.8411 24.5163 28 27.5 28Z" fill="url(#paint0_linear_1177_275)"/>
<defs>
<linearGradient id="paint0_linear_1177_275" x1="27.5" y1="6" x2="27.5" y2="50" gradientUnits="userSpaceOnUse">
<stop stop-color="#F165D2"/>
<stop offset="1" stop-color="#FFD44C"/>
</linearGradient>
</defs>
</svg>
